<svg width="89" height="71" viewBox="0 0 89 71" fill="none" xmlns="http://www.w3.org/2000/svg">
<path d="M43.3234 32.3889H36.672V21.27H44.5627C48.8527 21.27 51.2874 23.1804 51.2874 26.6354C51.2874 30.3247 48.453 32.3889 43.316 32.3889H43.3234ZM44.5114 36.8027H36.6757V49.0562H44.856C50.2057 49.0562 53.04 46.9152 53.04 42.8892C53.04 38.8633 50.125 36.8027 44.5114 36.8027ZM88.1667 32.9378V37.3957C84.0307 37.7909 81.5044 40.8506 80.0047 45.6964C78.5124 50.5239 78.307 56.4456 78.4647 61.0169C78.6297 65.7748 74.9154 70.1667 69.8957 70.1667H18.445C13.4217 70.1667 9.70735 65.7748 9.87602 61.0169C10.0337 56.4456 9.82835 50.5239 8.33602 45.6964C6.83269 40.8506 4.30269 37.7909 0.166687 37.3957V32.9378C4.30269 32.5426 6.83635 29.4829 8.33235 24.6371C9.82835 19.8096 10.0337 13.8879 9.87235 9.3166C9.70735 4.55867 13.4217 0.166748 18.445 0.166748H69.8957C74.919 0.166748 78.6297 4.55867 78.4647 9.3166C78.307 13.8879 78.5124 19.8096 80.0047 24.6371C81.5044 29.4829 84.0307 32.5426 88.1667 32.9378ZM59.101 43.2479C59.101 38.2923 55.6067 34.7093 50.4184 34.142V33.9333C54.2317 33.3148 57.2237 29.7793 57.2237 25.8339C57.2237 20.2086 52.776 16.545 45.9964 16.545H30.743V53.7739H46.0734C54.206 53.7739 59.101 49.7992 59.101 43.2479Z" fill="#555555"/>
</svg>
