<svg width="71" height="71" viewBox="0 0 71 71" fill="none" xmlns="http://www.w3.org/2000/svg">
<path d="M35.8334 0.833496C16.5046 0.833496 0.833374 16.5047 0.833374 35.8335C0.833374 55.1622 16.5046 70.8335 35.8334 70.8335C55.1621 70.8335 70.8334 55.1622 70.8334 35.8335C70.8334 16.5047 55.1621 0.833496 35.8334 0.833496ZM21.1392 23.2335C23.3384 23.2335 25.0388 24.8347 25.2371 26.7335C25.4384 28.4339 24.7384 29.9331 22.8396 30.8343C21.8392 31.3331 21.4396 31.336 21.2384 31.0356C21.1392 30.8343 21.2384 30.636 21.4396 30.4347C23.2392 28.9356 23.2392 27.7339 23.038 26.0364C22.9388 24.9339 22.1396 24.2339 21.3375 24.2339C17.8375 24.2339 12.8384 32.0331 13.5384 37.7352C13.8388 39.9343 15.1396 42.536 17.9396 42.536C18.838 42.536 19.8355 42.2356 20.7396 41.836C22.198 41.066 23.07 40.4652 23.9392 39.5027C23.7263 36.9214 25.9925 33.5352 29.338 33.5352C30.84 33.5352 32.0388 34.1331 32.138 35.2356C32.3363 36.7347 31.0384 36.9331 30.6388 36.9331C30.2392 36.9331 29.5363 36.8339 29.5363 36.4372C29.4371 36.0347 30.4375 36.2331 30.3384 35.3347C30.2363 34.7339 29.6384 34.5356 29.0375 34.5356C26.9375 34.5356 25.7388 37.4347 26.0363 39.2343C26.1384 40.0364 26.538 40.8356 27.34 40.8356C27.938 40.8356 28.8392 39.9314 29.1396 38.6335C29.338 37.7352 30.14 37.1343 30.84 37.1343C31.1375 37.1343 31.3359 37.2335 31.438 37.6331V38.0356C31.3388 38.4352 31.0384 39.6339 31.1405 39.9343C31.1405 40.1356 31.2396 40.4331 31.6363 40.4331C31.9046 40.4331 32.908 39.9081 33.9025 39.0943C34.2438 37.3735 34.6405 35.3085 34.6405 35.1364C34.7396 34.4364 35.04 33.7364 36.44 33.7364C36.7405 33.7364 36.9388 33.8356 37.038 34.2352V34.6377L36.6413 36.4372C37.9392 34.7368 39.8409 33.5381 41.0396 33.5381C41.5413 33.5381 41.9409 33.8356 41.9409 34.3372C41.9409 34.6377 41.9409 35.1364 41.7396 35.6381C41.34 36.7377 40.8384 38.4381 40.538 39.9372C40.538 40.3368 40.64 40.7364 41.1417 40.7364C41.6405 40.7364 43.1396 40.1356 44.3384 38.5372L44.3588 38.5256C44.353 38.3272 44.3384 38.1347 44.3384 37.9364C44.3384 36.7377 44.4405 35.7372 44.6417 35.0372C44.84 34.2381 45.8405 33.5381 46.4413 33.5381C46.7417 33.5381 47.0392 33.7393 47.0392 34.0368C47.0392 34.1389 47.0392 34.3372 46.94 34.4364C46.5405 35.7372 46.24 36.936 46.24 38.1377C46.24 38.8377 46.3392 39.8352 46.5375 40.436C46.5375 40.5352 46.6396 40.6372 46.7417 40.6372C46.94 40.6372 48.34 39.3393 49.3375 37.6389C48.4392 37.0381 47.9375 36.0377 47.9375 34.8389C47.9375 32.7389 49.2384 31.6393 50.44 31.6393C51.4405 31.6393 52.2396 32.3393 52.2396 33.7393C52.2396 34.6377 51.9392 35.6352 51.4405 36.5393H51.738C52.0552 36.5497 52.3711 36.4926 52.6647 36.3719C52.9583 36.2513 53.223 36.0698 53.4413 35.8393C53.5331 35.6878 53.6696 35.5686 53.8321 35.4981C54.8092 34.2585 56.253 33.3397 57.9446 33.3397C59.3446 33.3397 60.6396 33.9377 60.7417 35.0372C60.94 36.5393 59.6392 36.8397 59.2396 36.8397L59.2338 36.8339C58.8313 36.8339 58.1342 36.7318 58.1342 36.3322C58.1342 35.9327 59.0355 36.1339 58.9334 35.2356C58.8342 34.6347 58.2334 34.4335 57.6325 34.4335C55.6317 34.4335 54.3367 37.0322 54.6342 39.1322C54.7334 39.9343 55.133 40.8327 55.9321 40.8327C56.533 40.8327 57.4342 39.9343 57.8338 38.6335C58.0321 37.8343 58.8342 37.1343 59.5342 37.1343C59.8346 37.1343 60.03 37.2335 60.1321 37.6331C60.1321 37.8343 60.1321 38.2339 59.7325 39.5347C59.2367 40.4331 59.2338 40.9347 59.333 41.3343C59.4321 42.1335 59.8317 42.7343 60.2342 43.0347C60.3334 43.1339 60.4325 43.3322 60.4325 43.3322C60.4325 43.5335 60.3334 43.7347 60.033 43.7347C59.9338 43.7347 59.8346 43.7347 59.7325 43.6327C58.2334 43.0347 57.6325 42.0343 57.4313 41.0339C56.8334 41.7339 56.1334 42.1335 55.3313 42.1335C54.0334 42.1335 52.7355 40.9347 52.5313 39.4327C52.474 38.7934 52.5484 38.1491 52.75 37.5397C52.158 37.9189 51.5192 38.1318 50.933 38.1318H50.4371C49.1334 40.0335 47.7334 41.3343 46.733 41.9322C46.3932 42.1131 46.0178 42.2167 45.6334 42.2356C45.435 42.2356 45.1346 42.1335 45.0355 41.9322C44.7584 41.4889 44.5805 40.7889 44.4725 39.9868C43.0696 41.5239 41.133 42.3347 40.2346 42.3347C39.2342 42.3347 38.6363 41.7339 38.5371 40.7306V39.6339C38.8346 37.4347 39.6367 36.1339 39.6367 35.7343C39.634 35.6816 39.612 35.6316 39.5749 35.594C39.5378 35.5564 39.4882 35.5337 39.4355 35.5302C38.7355 35.5302 36.4371 37.9335 36.0346 39.5347L35.7342 40.8327C35.5359 41.7339 34.6346 42.3347 34.0367 42.3347C33.7363 42.3347 33.535 42.2327 33.4359 41.8331V41.4335L33.57 40.7539C32.3013 41.6581 31.0325 42.2356 30.4346 42.2356C29.5363 42.2356 29.0346 41.7339 28.9355 41.0339C28.3346 41.8331 27.6375 42.2356 26.7363 42.2356C25.7096 42.2356 24.7063 41.5356 24.2221 40.506C23.5105 41.3081 22.6967 42.1189 21.7371 42.7343C20.3371 43.6356 18.7388 44.3356 16.8371 44.3356C15.1396 44.3356 13.6375 43.4343 12.8384 42.6352C11.6367 41.5356 10.9396 39.8352 10.8375 38.2339C10.2396 33.3339 13.238 27.0339 17.8375 24.2339C18.94 23.636 20.0396 23.2335 21.1392 23.2335ZM49.635 32.8322C49.3317 32.8322 49.1334 33.3339 49.1334 33.8327C49.1334 34.6318 49.533 35.5331 50.0346 36.0347C50.2302 35.4891 50.3308 34.914 50.3321 34.3343C50.3321 33.3339 49.9355 32.8322 49.635 32.8322Z" fill="#555555"/>
</svg>
