<svg width="47" height="71" viewBox="0 0 47 71" fill="none" xmlns="http://www.w3.org/2000/svg">
<path d="M35.2517 23.8379C38.3676 23.8379 41.3558 22.6085 43.559 20.4201C45.7622 18.2318 47 15.2637 47 12.1689C47 9.07415 45.7622 6.10611 43.559 3.91775C41.3558 1.7294 38.3676 0.5 35.2517 0.5L11.7552 0.5C8.64115 0.5 5.65468 1.72868 3.45274 3.91575C1.2508 6.10282 0.013768 9.06913 0.013768 12.1621C0.013768 15.2551 1.2508 18.2214 3.45274 20.4085C5.65468 22.5955 8.64115 23.8242 11.7552 23.8242C8.63933 23.8242 5.65111 25.0536 3.44788 27.242C1.24465 29.4303 0.00688571 32.3984 0.00688571 35.4932C0.00688571 38.588 1.24465 41.556 3.44788 43.7444C5.65111 45.9327 8.63933 47.1621 11.7552 47.1621C9.43157 47.1608 7.15976 47.8438 5.22701 49.1249C3.29426 50.406 1.78738 52.2275 0.896925 54.3592C0.00646847 56.4909 -0.22757 58.837 0.224405 61.1008C0.676379 63.3647 1.79407 65.4445 3.43613 67.0774C5.07819 68.7103 7.17088 69.8229 9.44956 70.2744C11.7282 70.726 14.0906 70.4963 16.2378 69.6144C18.385 68.7324 20.2207 67.2378 21.5128 65.3197C22.8048 63.4015 23.4952 61.1458 23.4966 58.8379V23.8379H35.2517ZM35.2517 23.8379C32.9295 23.8379 30.6594 24.5219 28.7286 25.8033C26.7977 27.0848 25.2928 28.9061 24.4041 31.0371C23.5154 33.1681 23.2829 35.5129 23.7359 37.7752C24.189 40.0374 25.3072 42.1154 26.9493 43.7464C28.5914 45.3773 30.6835 46.488 32.9611 46.938C35.2387 47.388 37.5995 47.1571 39.745 46.2744C41.8904 45.3917 43.7242 43.8969 45.0143 41.9791C46.3045 40.0613 46.9931 37.8065 46.9931 35.5C46.9928 32.4071 45.7556 29.441 43.5537 27.254C41.3519 25.0671 38.3656 23.8383 35.2517 23.8379Z" fill="#555555"/>
</svg>
