<svg width="73" height="71" viewBox="0 0 73 71" fill="none" xmlns="http://www.w3.org/2000/svg">
<path d="M24.9156 56.8639C24.9156 57.1534 24.5818 57.385 24.1608 57.385C23.6818 57.4284 23.3479 57.1968 23.3479 56.8639C23.3479 56.5744 23.6818 56.3428 24.1027 56.3428C24.5382 56.2994 24.9156 56.531 24.9156 56.8639ZM20.4011 56.2125C20.2995 56.502 20.5898 56.8349 21.0253 56.9218C21.4027 57.0665 21.8382 56.9218 21.9253 56.6323C22.0124 56.3428 21.7366 56.0099 21.3011 55.8796C20.9237 55.7783 20.5027 55.923 20.4011 56.2125ZM26.8172 55.9665C26.3963 56.0678 26.106 56.3428 26.1495 56.6757C26.1931 56.9652 26.5705 57.1534 27.006 57.0521C27.4269 56.9507 27.7172 56.6757 27.6737 56.3862C27.6301 56.1112 27.2382 55.9231 26.8172 55.9665ZM36.3689 0.5C16.235 0.5 0.833374 15.7417 0.833374 35.8179C0.833374 51.8702 10.9656 65.6065 25.4382 70.441C27.2963 70.7739 27.9495 69.6304 27.9495 68.6896C27.9495 67.7922 27.906 62.8419 27.906 59.8022C27.906 59.8022 17.7447 61.9734 15.6108 55.4888C15.6108 55.4888 13.956 51.2767 11.5753 50.1911C11.5753 50.1911 8.25112 47.9186 11.8076 47.962C11.8076 47.962 15.4221 48.2515 17.4108 51.6965C20.5898 57.2837 25.9172 55.677 27.9931 54.7217C28.3269 52.4057 29.2705 50.7991 30.3156 49.8437C22.2011 48.9463 14.014 47.7739 14.014 33.8494C14.014 29.8689 15.1172 27.8714 17.4398 25.3239C17.0624 24.383 15.8285 20.5038 17.8172 15.4956C20.8511 14.5548 27.8334 19.4038 27.8334 19.4038C30.7366 18.5932 33.8576 18.1734 36.9495 18.1734C40.0414 18.1734 43.1624 18.5932 46.0656 19.4038C46.0656 19.4038 53.0479 14.5403 56.0818 15.4956C58.0705 20.5183 56.8366 24.383 56.4592 25.3239C58.7818 27.8858 60.2043 29.8833 60.2043 33.8494C60.2043 47.8173 51.6543 48.9318 43.5398 49.8437C44.8753 50.9872 46.0076 53.1584 46.0076 56.5599C46.0076 61.4379 45.964 67.4737 45.964 68.6607C45.964 69.6015 46.6318 70.745 48.4753 70.4121C62.9914 65.6065 72.8334 51.8702 72.8334 35.8179C72.8334 15.7417 56.5027 0.5 36.3689 0.5ZM14.9431 50.4227C14.7543 50.5675 14.7979 50.9004 15.0447 51.1754C15.2769 51.407 15.6108 51.5083 15.7995 51.3201C15.9882 51.1754 15.9447 50.8425 15.6979 50.5675C15.4656 50.3359 15.1318 50.2346 14.9431 50.4227ZM13.3753 49.2503C13.2737 49.4384 13.4189 49.67 13.7092 49.8148C13.9414 49.9595 14.2318 49.9161 14.3334 49.7135C14.435 49.5253 14.2898 49.2937 13.9995 49.149C13.7092 49.0621 13.4769 49.1055 13.3753 49.2503ZM18.0785 54.4032C17.8463 54.5914 17.9334 55.0256 18.2672 55.3006C18.6011 55.6336 19.0221 55.677 19.2108 55.4454C19.3995 55.2572 19.3124 54.823 19.0221 54.548C18.7027 54.2151 18.2672 54.1716 18.0785 54.4032ZM16.4237 52.2755C16.1914 52.4202 16.1914 52.7966 16.4237 53.1295C16.656 53.4624 17.0479 53.6071 17.2366 53.4624C17.4689 53.2742 17.4689 52.8979 17.2366 52.565C17.0334 52.232 16.656 52.0873 16.4237 52.2755Z" fill="#555555"/>
</svg>
