<svg width="71" height="71" viewBox="0 0 71 71" fill="none" xmlns="http://www.w3.org/2000/svg">
<path fill-rule="evenodd" clip-rule="evenodd" d="M24.0223 14.9335H31.3141L41.7995 50.0622H35.4657L32.8577 40.0558H22.6384L19.9771 50.0622H14.3885L24.0223 16.5835V14.9335ZM31.4206 34.893L27.8013 20.0431L24.0755 34.893H31.4206ZM52.6575 23.9556H46.9091V50.0621H52.6575V23.9556ZM49.7094 13.8127C47.8471 13.8127 46.3374 15.3051 46.3374 17.146C46.3374 18.987 47.8471 20.4794 49.7094 20.4794C51.5717 20.4794 53.0814 18.987 53.0814 17.146C53.0814 15.3051 51.5717 13.8127 49.7094 13.8127ZM70.5 70.1667H0.5V0.166748H70.5V70.1667Z" fill="#555555"/>
</svg>
