<svg width="71" height="71" viewBox="0 0 71 71" fill="none" xmlns="http://www.w3.org/2000/svg">
<path d="M63.3334 0.500122H8.33337C4.19275 0.500122 0.833374 3.8595 0.833374 8.00012V63.0001C0.833374 67.1407 4.19275 70.5001 8.33337 70.5001H63.3334C67.474 70.5001 70.8334 67.1407 70.8334 63.0001V8.00012C70.8334 3.8595 67.474 0.500122 63.3334 0.500122ZM38.9271 55.0939C38.9271 61.9064 34.9271 65.0157 29.099 65.0157C23.8334 65.0157 20.7865 62.297 19.224 59.0001L24.5834 55.7657C25.6146 57.5939 26.5521 59.1407 28.8177 59.1407C30.974 59.1407 32.349 58.297 32.349 55.0001V32.6407H38.9271V55.0939ZM54.4896 65.0157C48.3802 65.0157 44.4271 62.1095 42.5052 58.297L47.8646 55.2032C49.2709 57.5001 51.1146 59.2032 54.349 59.2032C57.0677 59.2032 58.8177 57.8439 58.8177 55.9532C58.8177 53.7032 57.0365 52.9064 54.0209 51.5782L52.3802 50.8751C47.6302 48.8595 44.4896 46.3126 44.4896 40.9532C44.4896 36.0157 48.2552 32.2657 54.1146 32.2657C58.3021 32.2657 61.3021 33.7189 63.4584 37.5314L58.3334 40.8126C57.2084 38.797 55.9896 38.0001 54.099 38.0001C52.1771 38.0001 50.9584 39.2189 50.9584 40.8126C50.9584 42.7814 52.1771 43.5782 55.0052 44.8126L56.6459 45.5157C62.2396 47.9064 65.3802 50.3595 65.3802 55.8595C65.3802 61.7657 60.724 65.0157 54.4896 65.0157Z" fill="#555555"/>
</svg>
