<svg width="71" height="71" viewBox="0 0 71 71" fill="none" xmlns="http://www.w3.org/2000/svg">
<path fill-rule="evenodd" clip-rule="evenodd" d="M70.1667 70.1667H0.166687V0.166748H70.1667V70.1667ZM55.7306 29.8366V24.4076C54.8365 24.0094 49.7161 22.5447 45.671 24.0882C39.8441 26.3116 40.0535 33.0094 42.2646 35.6381C45.1295 39.0441 52.2563 40.3139 51.0901 43.657C50.4862 45.3881 47.6669 45.6894 45.1813 45.1083C42.8666 44.5671 40.8541 43.1961 40.8541 43.1961V48.9444C40.8541 48.9444 42.8435 50.0536 45.285 50.3173C48.4149 50.6555 52.3381 50.0171 54.3036 48.27C57.8022 45.1601 58.3396 38.2708 51.7093 35.0718C46.192 32.4097 46.2828 31.65 46.3216 30.2846C46.3735 28.4559 50.2131 27.3303 55.7306 29.8366ZM25.9776 14.6008C30.5683 14.7605 37.3146 16.8762 37.3146 25.8979C37.3146 34.9196 29.0604 37.8798 21.5287 37.2349V50.009H15.9181V14.7206C15.9181 14.7206 21.387 14.4411 25.9776 14.6008ZM27.4347 31.6462C29.8541 30.7635 31.4266 28.8656 31.4266 25.9179C31.4266 22.7921 29.8263 20.6757 27.3788 20.0778C24.7283 19.4302 21.5287 19.8119 21.5287 19.8119V32.1226C21.5287 32.1226 25.9577 32.1851 27.4347 31.6462Z" fill="#555555"/>
</svg>
